<svg xmlns="http://www.w3.org/2000/svg" viewBox="0 0 900 288" width="900" height="288" font-family="Helvetica, Arial, sans-serif">
<defs><marker id="ar" viewBox="0 0 10 10" refX="9" refY="5" markerWidth="7" markerHeight="7" orient="auto-start-reverse"><path d="M 0 0 L 10 5 L 0 10 z" fill="#222"/></marker><marker id="ab" viewBox="0 0 10 10" refX="9" refY="5" markerWidth="7" markerHeight="7" orient="auto-start-reverse"><path d="M 0 0 L 10 5 L 0 10 z" fill="#B31B1B"/></marker></defs>

<text x="450" y="20" font-size="18" fill="#222" text-anchor="middle">forward &#8212; add a little Gaussian noise (fixed rule, nothing learned)</text>
<line x1="60" y1="40" x2="832" y2="40" stroke="#222" stroke-width="2.5" marker-end="url(#ar)"/>
<rect x="50" y="62" width="140" height="140" fill="#fbfbfb" stroke="#bbb" stroke-width="1.2" rx="4"/>
<path d="M 76.0 162.0 L 90.0 126.0 L 118.0 108.0 L 148.0 118.0 L 164.0 148.0 L 150.0 178.0 L 118.0 188.0 L 90.0 178.0 Z" fill="none" stroke="#B31B1B" stroke-width="3.5" stroke-linejoin="round" opacity="1.00"/>
<circle cx="76.0" cy="162.0" r="4.2" fill="#B31B1B" opacity="1.00"/>
<circle cx="90.0" cy="126.0" r="4.2" fill="#B31B1B" opacity="1.00"/>
<circle cx="118.0" cy="108.0" r="4.2" fill="#B31B1B" opacity="1.00"/>
<circle cx="148.0" cy="118.0" r="4.2" fill="#B31B1B" opacity="1.00"/>
<circle cx="164.0" cy="148.0" r="4.2" fill="#B31B1B" opacity="1.00"/>
<circle cx="150.0" cy="178.0" r="4.2" fill="#B31B1B" opacity="1.00"/>
<circle cx="118.0" cy="188.0" r="4.2" fill="#B31B1B" opacity="1.00"/>
<circle cx="90.0" cy="178.0" r="4.2" fill="#B31B1B" opacity="1.00"/>
<text x="120" y="226" font-size="19" fill="#222" text-anchor="middle" font-style="italic">x<tspan dy="5" font-size="14">0</tspan></text>
<rect x="212" y="62" width="140" height="140" fill="#fbfbfb" stroke="#bbb" stroke-width="1.2" rx="4"/>
<circle cx="344.7" cy="192.4" r="2.1" fill="rgb(100,100,100)" opacity="0.75"/>
<circle cx="325.1" cy="75.2" r="1.5" fill="rgb(69,69,69)" opacity="0.75"/>
<circle cx="248.5" cy="70.9" r="1.7" fill="rgb(178,178,178)" opacity="0.75"/>
<circle cx="293.8" cy="92.4" r="2.1" fill="rgb(119,119,119)" opacity="0.75"/>
<circle cx="282.0" cy="153.1" r="2.1" fill="rgb(177,177,177)" opacity="0.75"/>
<circle cx="269.9" cy="138.7" r="2.2" fill="rgb(81,81,81)" opacity="0.75"/>
<circle cx="258.0" cy="96.9" r="1.2" fill="rgb(133,133,133)" opacity="0.75"/>
<circle cx="290.2" cy="81.0" r="2.4" fill="rgb(87,87,87)" opacity="0.75"/>
<circle cx="267.2" cy="191.5" r="1.5" fill="rgb(60,60,60)" opacity="0.75"/>
<circle cx="337.5" cy="73.8" r="2.6" fill="rgb(156,156,156)" opacity="0.75"/>
<circle cx="268.7" cy="76.5" r="2.3" fill="rgb(110,110,110)" opacity="0.75"/>
<circle cx="252.1" cy="78.3" r="1.2" fill="rgb(145,145,145)" opacity="0.75"/>
<circle cx="270.3" cy="187.0" r="1.5" fill="rgb(94,94,94)" opacity="0.75"/>
<circle cx="230.1" cy="74.8" r="1.4" fill="rgb(184,184,184)" opacity="0.75"/>
<circle cx="289.7" cy="125.2" r="2.6" fill="rgb(108,108,108)" opacity="0.75"/>
<circle cx="317.0" cy="121.5" r="1.4" fill="rgb(158,158,158)" opacity="0.75"/>
<circle cx="271.7" cy="94.7" r="2.4" fill="rgb(129,129,129)" opacity="0.75"/>
<circle cx="343.7" cy="144.1" r="1.5" fill="rgb(65,65,65)" opacity="0.75"/>
<circle cx="268.3" cy="178.1" r="1.3" fill="rgb(85,85,85)" opacity="0.75"/>
<circle cx="236.0" cy="124.4" r="2.3" fill="rgb(62,62,62)" opacity="0.75"/>
<circle cx="259.8" cy="105.5" r="1.3" fill="rgb(78,78,78)" opacity="0.75"/>
<circle cx="244.1" cy="149.8" r="2.0" fill="rgb(63,63,63)" opacity="0.75"/>
<circle cx="265.3" cy="125.9" r="2.4" fill="rgb(183,183,183)" opacity="0.75"/>
<circle cx="234.6" cy="117.2" r="1.6" fill="rgb(99,99,99)" opacity="0.75"/>
<circle cx="246.7" cy="146.4" r="1.4" fill="rgb(108,108,108)" opacity="0.75"/>
<circle cx="298.8" cy="139.0" r="2.4" fill="rgb(159,159,159)" opacity="0.75"/>
<circle cx="295.5" cy="121.8" r="1.4" fill="rgb(86,86,86)" opacity="0.75"/>
<circle cx="283.6" cy="100.2" r="1.6" fill="rgb(160,160,160)" opacity="0.75"/>
<circle cx="324.1" cy="144.5" r="1.9" fill="rgb(135,135,135)" opacity="0.75"/>
<circle cx="337.8" cy="194.0" r="1.5" fill="rgb(92,92,92)" opacity="0.75"/>
<path d="M 238.7 166.2 L 253.4 123.4 L 285.0 104.4 L 304.2 115.2 L 325.3 142.7 L 308.1 176.4 L 280.9 183.6 L 250.3 182.7 Z" fill="none" stroke="#B31B1B" stroke-width="3.5" stroke-linejoin="round" opacity="0.72"/>
<circle cx="238.7" cy="166.2" r="4.2" fill="#B31B1B" opacity="0.72"/>
<circle cx="253.4" cy="123.4" r="4.2" fill="#B31B1B" opacity="0.72"/>
<circle cx="285.0" cy="104.4" r="4.2" fill="#B31B1B" opacity="0.72"/>
<circle cx="304.2" cy="115.2" r="4.2" fill="#B31B1B" opacity="0.72"/>
<circle cx="325.3" cy="142.7" r="4.2" fill="#B31B1B" opacity="0.72"/>
<circle cx="308.1" cy="176.4" r="4.2" fill="#B31B1B" opacity="0.72"/>
<circle cx="280.9" cy="183.6" r="4.2" fill="#B31B1B" opacity="0.72"/>
<circle cx="250.3" cy="182.7" r="4.2" fill="#B31B1B" opacity="0.72"/>
<text x="282" y="226" font-size="19" fill="#222" text-anchor="middle" font-style="italic">x<tspan dy="5" font-size="14">1</tspan></text>
<rect x="374" y="62" width="140" height="140" fill="#fbfbfb" stroke="#bbb" stroke-width="1.2" rx="4"/>
<circle cx="506.5" cy="152.4" r="2.0" fill="rgb(95,95,95)" opacity="0.75"/>
<circle cx="499.1" cy="128.7" r="2.2" fill="rgb(151,151,151)" opacity="0.75"/>
<circle cx="504.2" cy="69.8" r="1.9" fill="rgb(79,79,79)" opacity="0.75"/>
<circle cx="474.0" cy="108.5" r="1.3" fill="rgb(78,78,78)" opacity="0.75"/>
<circle cx="450.0" cy="162.8" r="2.3" fill="rgb(93,93,93)" opacity="0.75"/>
<circle cx="498.0" cy="112.7" r="2.5" fill="rgb(181,181,181)" opacity="0.75"/>
<circle cx="492.2" cy="121.2" r="2.4" fill="rgb(67,67,67)" opacity="0.75"/>
<circle cx="453.5" cy="148.2" r="1.7" fill="rgb(157,157,157)" opacity="0.75"/>
<circle cx="380.6" cy="76.4" r="2.1" fill="rgb(83,83,83)" opacity="0.75"/>
<circle cx="508.1" cy="181.4" r="1.7" fill="rgb(144,144,144)" opacity="0.75"/>
<circle cx="474.6" cy="142.5" r="1.8" fill="rgb(172,172,172)" opacity="0.75"/>
<circle cx="449.4" cy="134.4" r="1.6" fill="rgb(67,67,67)" opacity="0.75"/>
<circle cx="390.4" cy="69.9" r="1.9" fill="rgb(88,88,88)" opacity="0.75"/>
<circle cx="458.9" cy="186.7" r="2.5" fill="rgb(125,125,125)" opacity="0.75"/>
<circle cx="426.8" cy="85.6" r="1.9" fill="rgb(111,111,111)" opacity="0.75"/>
<circle cx="477.0" cy="111.5" r="1.9" fill="rgb(173,173,173)" opacity="0.75"/>
<circle cx="410.4" cy="119.6" r="1.5" fill="rgb(124,124,124)" opacity="0.75"/>
<circle cx="435.0" cy="171.8" r="2.4" fill="rgb(111,111,111)" opacity="0.75"/>
<circle cx="429.0" cy="142.8" r="1.5" fill="rgb(141,141,141)" opacity="0.75"/>
<circle cx="396.5" cy="112.6" r="2.2" fill="rgb(70,70,70)" opacity="0.75"/>
<circle cx="502.5" cy="103.0" r="1.4" fill="rgb(103,103,103)" opacity="0.75"/>
<circle cx="440.3" cy="187.3" r="1.7" fill="rgb(165,165,165)" opacity="0.75"/>
<circle cx="446.6" cy="154.4" r="1.6" fill="rgb(175,175,175)" opacity="0.75"/>
<circle cx="486.7" cy="103.2" r="2.1" fill="rgb(70,70,70)" opacity="0.75"/>
<circle cx="415.5" cy="113.0" r="2.1" fill="rgb(64,64,64)" opacity="0.75"/>
<circle cx="431.7" cy="91.7" r="1.5" fill="rgb(128,128,128)" opacity="0.75"/>
<circle cx="397.3" cy="73.1" r="1.8" fill="rgb(89,89,89)" opacity="0.75"/>
<circle cx="460.9" cy="152.2" r="2.5" fill="rgb(154,154,154)" opacity="0.75"/>
<circle cx="468.0" cy="92.9" r="1.6" fill="rgb(181,181,181)" opacity="0.75"/>
<circle cx="471.8" cy="165.2" r="1.5" fill="rgb(69,69,69)" opacity="0.75"/>
<circle cx="414.4" cy="111.9" r="2.1" fill="rgb(188,188,188)" opacity="0.75"/>
<circle cx="477.3" cy="118.2" r="1.3" fill="rgb(117,117,117)" opacity="0.75"/>
<circle cx="500.2" cy="160.9" r="1.8" fill="rgb(93,93,93)" opacity="0.75"/>
<circle cx="404.6" cy="182.4" r="1.7" fill="rgb(61,61,61)" opacity="0.75"/>
<circle cx="452.9" cy="181.3" r="1.8" fill="rgb(147,147,147)" opacity="0.75"/>
<circle cx="463.7" cy="93.6" r="1.5" fill="rgb(91,91,91)" opacity="0.75"/>
<circle cx="496.0" cy="194.5" r="2.0" fill="rgb(139,139,139)" opacity="0.75"/>
<circle cx="481.8" cy="108.7" r="1.7" fill="rgb(64,64,64)" opacity="0.75"/>
<circle cx="389.8" cy="124.3" r="2.3" fill="rgb(167,167,167)" opacity="0.75"/>
<circle cx="442.4" cy="70.7" r="1.8" fill="rgb(76,76,76)" opacity="0.75"/>
<circle cx="383.6" cy="136.3" r="1.9" fill="rgb(95,95,95)" opacity="0.75"/>
<circle cx="509.0" cy="184.1" r="2.5" fill="rgb(172,172,172)" opacity="0.75"/>
<circle cx="443.0" cy="190.4" r="2.3" fill="rgb(82,82,82)" opacity="0.75"/>
<circle cx="436.1" cy="139.6" r="1.9" fill="rgb(102,102,102)" opacity="0.75"/>
<circle cx="488.7" cy="139.8" r="2.1" fill="rgb(139,139,139)" opacity="0.75"/>
<circle cx="503.1" cy="180.1" r="1.6" fill="rgb(113,113,113)" opacity="0.75"/>
<circle cx="397.3" cy="137.8" r="2.0" fill="rgb(129,129,129)" opacity="0.75"/>
<circle cx="405.1" cy="136.7" r="1.2" fill="rgb(188,188,188)" opacity="0.75"/>
<circle cx="428.0" cy="137.0" r="1.9" fill="rgb(71,71,71)" opacity="0.75"/>
<circle cx="431.1" cy="171.1" r="1.9" fill="rgb(91,91,91)" opacity="0.75"/>
<circle cx="468.8" cy="75.6" r="1.8" fill="rgb(177,177,177)" opacity="0.75"/>
<circle cx="503.4" cy="187.0" r="1.5" fill="rgb(128,128,128)" opacity="0.75"/>
<circle cx="443.1" cy="111.2" r="1.9" fill="rgb(181,181,181)" opacity="0.75"/>
<circle cx="393.1" cy="121.5" r="2.5" fill="rgb(67,67,67)" opacity="0.75"/>
<circle cx="395.8" cy="168.3" r="1.2" fill="rgb(65,65,65)" opacity="0.75"/>
<circle cx="399.2" cy="68.5" r="1.7" fill="rgb(132,132,132)" opacity="0.75"/>
<circle cx="425.2" cy="147.6" r="1.9" fill="rgb(86,86,86)" opacity="0.75"/>
<circle cx="454.7" cy="177.7" r="2.2" fill="rgb(124,124,124)" opacity="0.75"/>
<circle cx="470.2" cy="181.2" r="1.7" fill="rgb(65,65,65)" opacity="0.75"/>
<circle cx="432.7" cy="135.8" r="2.0" fill="rgb(100,100,100)" opacity="0.75"/>
<circle cx="491.3" cy="136.4" r="1.9" fill="rgb(115,115,115)" opacity="0.75"/>
<circle cx="489.7" cy="146.5" r="1.5" fill="rgb(94,94,94)" opacity="0.75"/>
<circle cx="475.3" cy="172.4" r="1.6" fill="rgb(106,106,106)" opacity="0.75"/>
<circle cx="419.9" cy="187.0" r="2.3" fill="rgb(115,115,115)" opacity="0.75"/>
<circle cx="404.3" cy="79.6" r="1.4" fill="rgb(121,121,121)" opacity="0.75"/>
<circle cx="390.5" cy="117.4" r="2.4" fill="rgb(171,171,171)" opacity="0.75"/>
<circle cx="433.8" cy="169.7" r="1.5" fill="rgb(92,92,92)" opacity="0.75"/>
<circle cx="460.6" cy="170.9" r="1.5" fill="rgb(84,84,84)" opacity="0.75"/>
<circle cx="467.7" cy="185.5" r="1.4" fill="rgb(152,152,152)" opacity="0.75"/>
<circle cx="444.7" cy="165.6" r="2.6" fill="rgb(188,188,188)" opacity="0.75"/>
<circle cx="487.3" cy="171.4" r="1.3" fill="rgb(183,183,183)" opacity="0.75"/>
<circle cx="383.9" cy="138.7" r="1.4" fill="rgb(183,183,183)" opacity="0.75"/>
<circle cx="403.0" cy="93.5" r="2.6" fill="rgb(100,100,100)" opacity="0.75"/>
<circle cx="499.5" cy="79.4" r="1.4" fill="rgb(75,75,75)" opacity="0.75"/>
<circle cx="467.5" cy="77.1" r="1.7" fill="rgb(84,84,84)" opacity="0.75"/>
<path d="M 399.1 162.4 L 412.0 128.8 L 428.4 113.6 L 481.6 109.1 L 486.7 154.7 L 471.3 169.5 L 432.6 188.4 L 400.4 189.0 Z" fill="none" stroke="#B31B1B" stroke-width="3.5" stroke-linejoin="round" opacity="0.42"/>
<circle cx="399.1" cy="162.4" r="4.2" fill="#B31B1B" opacity="0.42"/>
<circle cx="412.0" cy="128.8" r="4.2" fill="#B31B1B" opacity="0.42"/>
<circle cx="428.4" cy="113.6" r="4.2" fill="#B31B1B" opacity="0.42"/>
<circle cx="481.6" cy="109.1" r="4.2" fill="#B31B1B" opacity="0.42"/>
<circle cx="486.7" cy="154.7" r="4.2" fill="#B31B1B" opacity="0.42"/>
<circle cx="471.3" cy="169.5" r="4.2" fill="#B31B1B" opacity="0.42"/>
<circle cx="432.6" cy="188.4" r="4.2" fill="#B31B1B" opacity="0.42"/>
<circle cx="400.4" cy="189.0" r="4.2" fill="#B31B1B" opacity="0.42"/>
<text x="444" y="226" font-size="19" fill="#222" text-anchor="middle" font-style="italic">x<tspan dy="5" font-size="14">t</tspan></text>
<rect x="536" y="62" width="140" height="140" fill="#fbfbfb" stroke="#bbb" stroke-width="1.2" rx="4"/>
<circle cx="645.2" cy="158.6" r="2.0" fill="rgb(163,163,163)" opacity="0.75"/>
<circle cx="565.8" cy="143.0" r="2.3" fill="rgb(147,147,147)" opacity="0.75"/>
<circle cx="574.6" cy="185.5" r="2.3" fill="rgb(100,100,100)" opacity="0.75"/>
<circle cx="593.7" cy="183.6" r="2.3" fill="rgb(154,154,154)" opacity="0.75"/>
<circle cx="640.5" cy="119.7" r="1.3" fill="rgb(107,107,107)" opacity="0.75"/>
<circle cx="585.4" cy="127.9" r="2.4" fill="rgb(62,62,62)" opacity="0.75"/>
<circle cx="669.8" cy="184.4" r="1.5" fill="rgb(72,72,72)" opacity="0.75"/>
<circle cx="663.8" cy="153.6" r="1.5" fill="rgb(146,146,146)" opacity="0.75"/>
<circle cx="593.8" cy="90.7" r="1.7" fill="rgb(79,79,79)" opacity="0.75"/>
<circle cx="671.0" cy="150.5" r="2.3" fill="rgb(90,90,90)" opacity="0.75"/>
<circle cx="668.4" cy="70.0" r="2.2" fill="rgb(87,87,87)" opacity="0.75"/>
<circle cx="574.4" cy="119.2" r="2.3" fill="rgb(72,72,72)" opacity="0.75"/>
<circle cx="625.2" cy="68.4" r="1.6" fill="rgb(126,126,126)" opacity="0.75"/>
<circle cx="658.7" cy="138.5" r="1.8" fill="rgb(190,190,190)" opacity="0.75"/>
<circle cx="608.7" cy="177.0" r="2.1" fill="rgb(85,85,85)" opacity="0.75"/>
<circle cx="646.2" cy="76.9" r="1.7" fill="rgb(71,71,71)" opacity="0.75"/>
<circle cx="663.0" cy="117.2" r="2.4" fill="rgb(103,103,103)" opacity="0.75"/>
<circle cx="611.5" cy="144.6" r="2.5" fill="rgb(169,169,169)" opacity="0.75"/>
<circle cx="595.7" cy="135.5" r="1.7" fill="rgb(139,139,139)" opacity="0.75"/>
<circle cx="578.1" cy="152.2" r="2.1" fill="rgb(132,132,132)" opacity="0.75"/>
<circle cx="638.2" cy="70.5" r="2.0" fill="rgb(122,122,122)" opacity="0.75"/>
<circle cx="623.3" cy="120.1" r="1.3" fill="rgb(159,159,159)" opacity="0.75"/>
<circle cx="582.0" cy="118.7" r="1.3" fill="rgb(141,141,141)" opacity="0.75"/>
<circle cx="658.7" cy="122.8" r="1.6" fill="rgb(182,182,182)" opacity="0.75"/>
<circle cx="639.2" cy="72.9" r="2.5" fill="rgb(85,85,85)" opacity="0.75"/>
<circle cx="635.0" cy="127.9" r="2.0" fill="rgb(122,122,122)" opacity="0.75"/>
<circle cx="556.0" cy="148.2" r="1.4" fill="rgb(176,176,176)" opacity="0.75"/>
<circle cx="652.9" cy="113.4" r="1.4" fill="rgb(99,99,99)" opacity="0.75"/>
<circle cx="598.6" cy="153.8" r="2.0" fill="rgb(176,176,176)" opacity="0.75"/>
<circle cx="624.1" cy="155.7" r="2.3" fill="rgb(153,153,153)" opacity="0.75"/>
<circle cx="610.0" cy="196.7" r="2.2" fill="rgb(134,134,134)" opacity="0.75"/>
<circle cx="572.0" cy="81.8" r="2.3" fill="rgb(139,139,139)" opacity="0.75"/>
<circle cx="622.2" cy="113.7" r="2.1" fill="rgb(129,129,129)" opacity="0.75"/>
<circle cx="635.3" cy="157.9" r="2.1" fill="rgb(108,108,108)" opacity="0.75"/>
<circle cx="638.9" cy="91.7" r="1.9" fill="rgb(123,123,123)" opacity="0.75"/>
<circle cx="625.9" cy="92.5" r="2.1" fill="rgb(70,70,70)" opacity="0.75"/>
<circle cx="542.2" cy="100.7" r="2.1" fill="rgb(66,66,66)" opacity="0.75"/>
<circle cx="554.3" cy="137.4" r="2.3" fill="rgb(78,78,78)" opacity="0.75"/>
<circle cx="659.7" cy="87.9" r="2.1" fill="rgb(120,120,120)" opacity="0.75"/>
<circle cx="589.5" cy="129.2" r="1.7" fill="rgb(113,113,113)" opacity="0.75"/>
<circle cx="605.3" cy="84.3" r="2.3" fill="rgb(79,79,79)" opacity="0.75"/>
<circle cx="599.2" cy="173.9" r="1.8" fill="rgb(114,114,114)" opacity="0.75"/>
<circle cx="638.2" cy="117.7" r="1.7" fill="rgb(98,98,98)" opacity="0.75"/>
<circle cx="626.0" cy="195.6" r="1.6" fill="rgb(143,143,143)" opacity="0.75"/>
<circle cx="639.7" cy="174.4" r="1.8" fill="rgb(107,107,107)" opacity="0.75"/>
<circle cx="589.0" cy="79.6" r="1.3" fill="rgb(142,142,142)" opacity="0.75"/>
<circle cx="551.8" cy="140.3" r="2.3" fill="rgb(184,184,184)" opacity="0.75"/>
<circle cx="601.3" cy="174.1" r="1.3" fill="rgb(62,62,62)" opacity="0.75"/>
<circle cx="568.7" cy="153.1" r="2.2" fill="rgb(80,80,80)" opacity="0.75"/>
<circle cx="605.3" cy="166.3" r="1.6" fill="rgb(143,143,143)" opacity="0.75"/>
<circle cx="559.6" cy="113.5" r="1.7" fill="rgb(143,143,143)" opacity="0.75"/>
<circle cx="556.3" cy="159.2" r="1.8" fill="rgb(131,131,131)" opacity="0.75"/>
<circle cx="645.4" cy="106.6" r="1.5" fill="rgb(141,141,141)" opacity="0.75"/>
<circle cx="666.8" cy="161.9" r="1.3" fill="rgb(123,123,123)" opacity="0.75"/>
<circle cx="648.7" cy="70.1" r="2.0" fill="rgb(161,161,161)" opacity="0.75"/>
<circle cx="644.5" cy="163.0" r="2.3" fill="rgb(154,154,154)" opacity="0.75"/>
<circle cx="611.3" cy="175.7" r="1.4" fill="rgb(105,105,105)" opacity="0.75"/>
<circle cx="639.7" cy="181.5" r="2.3" fill="rgb(132,132,132)" opacity="0.75"/>
<circle cx="569.8" cy="74.5" r="2.0" fill="rgb(100,100,100)" opacity="0.75"/>
<circle cx="666.6" cy="151.7" r="1.3" fill="rgb(168,168,168)" opacity="0.75"/>
<circle cx="612.1" cy="169.4" r="1.7" fill="rgb(81,81,81)" opacity="0.75"/>
<circle cx="576.6" cy="80.7" r="1.3" fill="rgb(140,140,140)" opacity="0.75"/>
<circle cx="623.4" cy="85.7" r="1.5" fill="rgb(168,168,168)" opacity="0.75"/>
<circle cx="569.7" cy="166.5" r="2.3" fill="rgb(146,146,146)" opacity="0.75"/>
<circle cx="592.3" cy="110.9" r="2.1" fill="rgb(145,145,145)" opacity="0.75"/>
<circle cx="605.2" cy="136.9" r="2.2" fill="rgb(78,78,78)" opacity="0.75"/>
<circle cx="659.9" cy="120.4" r="2.4" fill="rgb(149,149,149)" opacity="0.75"/>
<circle cx="645.8" cy="175.4" r="2.5" fill="rgb(178,178,178)" opacity="0.75"/>
<circle cx="624.2" cy="135.1" r="2.3" fill="rgb(62,62,62)" opacity="0.75"/>
<circle cx="595.8" cy="121.7" r="1.5" fill="rgb(97,97,97)" opacity="0.75"/>
<circle cx="562.1" cy="149.6" r="1.6" fill="rgb(102,102,102)" opacity="0.75"/>
<circle cx="591.6" cy="135.8" r="2.6" fill="rgb(130,130,130)" opacity="0.75"/>
<circle cx="548.7" cy="107.1" r="1.6" fill="rgb(89,89,89)" opacity="0.75"/>
<circle cx="561.2" cy="186.6" r="2.3" fill="rgb(75,75,75)" opacity="0.75"/>
<circle cx="543.2" cy="129.5" r="1.6" fill="rgb(69,69,69)" opacity="0.75"/>
<circle cx="566.7" cy="113.7" r="2.0" fill="rgb(120,120,120)" opacity="0.75"/>
<circle cx="602.3" cy="133.1" r="1.5" fill="rgb(173,173,173)" opacity="0.75"/>
<circle cx="577.5" cy="89.4" r="2.1" fill="rgb(139,139,139)" opacity="0.75"/>
<circle cx="663.5" cy="138.6" r="1.9" fill="rgb(126,126,126)" opacity="0.75"/>
<circle cx="593.3" cy="191.2" r="1.9" fill="rgb(83,83,83)" opacity="0.75"/>
<circle cx="569.7" cy="73.5" r="2.3" fill="rgb(94,94,94)" opacity="0.75"/>
<circle cx="591.0" cy="135.6" r="2.3" fill="rgb(130,130,130)" opacity="0.75"/>
<circle cx="548.5" cy="187.2" r="2.4" fill="rgb(62,62,62)" opacity="0.75"/>
<circle cx="658.7" cy="125.5" r="2.2" fill="rgb(123,123,123)" opacity="0.75"/>
<circle cx="619.8" cy="87.4" r="2.3" fill="rgb(100,100,100)" opacity="0.75"/>
<circle cx="559.8" cy="185.1" r="2.1" fill="rgb(93,93,93)" opacity="0.75"/>
<circle cx="670.1" cy="101.6" r="1.4" fill="rgb(73,73,73)" opacity="0.75"/>
<circle cx="641.1" cy="67.2" r="2.4" fill="rgb(98,98,98)" opacity="0.75"/>
<circle cx="551.7" cy="102.1" r="2.4" fill="rgb(84,84,84)" opacity="0.75"/>
<circle cx="631.2" cy="77.8" r="1.6" fill="rgb(189,189,189)" opacity="0.75"/>
<circle cx="643.6" cy="121.2" r="2.3" fill="rgb(83,83,83)" opacity="0.75"/>
<circle cx="598.2" cy="71.8" r="1.9" fill="rgb(165,165,165)" opacity="0.75"/>
<circle cx="561.5" cy="175.2" r="1.6" fill="rgb(139,139,139)" opacity="0.75"/>
<circle cx="593.7" cy="139.3" r="2.1" fill="rgb(179,179,179)" opacity="0.75"/>
<circle cx="549.7" cy="76.7" r="1.3" fill="rgb(95,95,95)" opacity="0.75"/>
<circle cx="592.3" cy="127.0" r="2.1" fill="rgb(91,91,91)" opacity="0.75"/>
<circle cx="542.6" cy="116.0" r="1.5" fill="rgb(181,181,181)" opacity="0.75"/>
<circle cx="614.3" cy="126.6" r="2.4" fill="rgb(62,62,62)" opacity="0.75"/>
<circle cx="650.8" cy="160.5" r="1.6" fill="rgb(98,98,98)" opacity="0.75"/>
<circle cx="589.9" cy="137.2" r="2.5" fill="rgb(136,136,136)" opacity="0.75"/>
<circle cx="639.1" cy="139.2" r="1.6" fill="rgb(82,82,82)" opacity="0.75"/>
<circle cx="567.0" cy="162.1" r="1.6" fill="rgb(144,144,144)" opacity="0.75"/>
<circle cx="576.6" cy="128.1" r="1.8" fill="rgb(144,144,144)" opacity="0.75"/>
<circle cx="590.7" cy="80.2" r="1.4" fill="rgb(84,84,84)" opacity="0.75"/>
<circle cx="623.0" cy="90.3" r="1.8" fill="rgb(109,109,109)" opacity="0.75"/>
<circle cx="649.8" cy="144.1" r="1.3" fill="rgb(83,83,83)" opacity="0.75"/>
<circle cx="545.2" cy="195.4" r="1.8" fill="rgb(171,171,171)" opacity="0.75"/>
<circle cx="550.4" cy="186.7" r="2.5" fill="rgb(169,169,169)" opacity="0.75"/>
<circle cx="559.1" cy="93.7" r="2.3" fill="rgb(97,97,97)" opacity="0.75"/>
<circle cx="591.2" cy="110.1" r="2.1" fill="rgb(165,165,165)" opacity="0.75"/>
<circle cx="635.5" cy="146.7" r="2.6" fill="rgb(141,141,141)" opacity="0.75"/>
<circle cx="643.7" cy="152.8" r="1.6" fill="rgb(64,64,64)" opacity="0.75"/>
<circle cx="565.5" cy="106.9" r="1.3" fill="rgb(172,172,172)" opacity="0.75"/>
<circle cx="590.1" cy="133.2" r="2.4" fill="rgb(135,135,135)" opacity="0.75"/>
<circle cx="620.5" cy="87.6" r="2.0" fill="rgb(136,136,136)" opacity="0.75"/>
<circle cx="586.8" cy="132.1" r="2.0" fill="rgb(96,96,96)" opacity="0.75"/>
<circle cx="566.8" cy="188.4" r="2.0" fill="rgb(110,110,110)" opacity="0.75"/>
<circle cx="544.5" cy="152.7" r="1.4" fill="rgb(81,81,81)" opacity="0.75"/>
<circle cx="603.1" cy="121.3" r="1.7" fill="rgb(145,145,145)" opacity="0.75"/>
<circle cx="661.8" cy="114.0" r="2.4" fill="rgb(178,178,178)" opacity="0.75"/>
<circle cx="599.8" cy="161.9" r="2.5" fill="rgb(121,121,121)" opacity="0.75"/>
<circle cx="611.6" cy="139.9" r="1.4" fill="rgb(127,127,127)" opacity="0.75"/>
<circle cx="637.9" cy="183.6" r="2.0" fill="rgb(145,145,145)" opacity="0.75"/>
<circle cx="556.9" cy="174.2" r="2.2" fill="rgb(133,133,133)" opacity="0.75"/>
<circle cx="588.3" cy="165.6" r="2.4" fill="rgb(152,152,152)" opacity="0.75"/>
<circle cx="565.1" cy="138.2" r="1.8" fill="rgb(79,79,79)" opacity="0.75"/>
<circle cx="593.4" cy="168.8" r="1.6" fill="rgb(95,95,95)" opacity="0.75"/>
<circle cx="628.3" cy="162.9" r="2.1" fill="rgb(157,157,157)" opacity="0.75"/>
<circle cx="624.2" cy="166.2" r="1.5" fill="rgb(100,100,100)" opacity="0.75"/>
<circle cx="601.8" cy="85.6" r="1.4" fill="rgb(158,158,158)" opacity="0.75"/>
<circle cx="593.7" cy="110.7" r="1.6" fill="rgb(93,93,93)" opacity="0.75"/>
<circle cx="614.8" cy="110.2" r="2.2" fill="rgb(69,69,69)" opacity="0.75"/>
<circle cx="643.4" cy="119.4" r="2.0" fill="rgb(187,187,187)" opacity="0.75"/>
<circle cx="602.1" cy="120.5" r="2.3" fill="rgb(164,164,164)" opacity="0.75"/>
<circle cx="604.2" cy="196.3" r="2.4" fill="rgb(164,164,164)" opacity="0.75"/>
<path d="M 542.1 142.0 L 598.8 117.2 L 605.1 103.9 L 609.3 139.2 L 639.4 154.0 L 632.5 171.6 L 594.7 203.1 L 595.9 197.6 Z" fill="none" stroke="#B31B1B" stroke-width="3.5" stroke-linejoin="round" opacity="0.16"/>
<circle cx="542.1" cy="142.0" r="4.2" fill="#B31B1B" opacity="0.16"/>
<circle cx="598.8" cy="117.2" r="4.2" fill="#B31B1B" opacity="0.16"/>
<circle cx="605.1" cy="103.9" r="4.2" fill="#B31B1B" opacity="0.16"/>
<circle cx="609.3" cy="139.2" r="4.2" fill="#B31B1B" opacity="0.16"/>
<circle cx="639.4" cy="154.0" r="4.2" fill="#B31B1B" opacity="0.16"/>
<circle cx="632.5" cy="171.6" r="4.2" fill="#B31B1B" opacity="0.16"/>
<circle cx="594.7" cy="203.1" r="4.2" fill="#B31B1B" opacity="0.16"/>
<circle cx="595.9" cy="197.6" r="4.2" fill="#B31B1B" opacity="0.16"/>
<text x="606" y="226" font-size="19" fill="#222" text-anchor="middle" font-style="italic">x<tspan dy="5" font-size="14">T-1</tspan></text>
<rect x="698" y="62" width="140" height="140" fill="#fbfbfb" stroke="#bbb" stroke-width="1.2" rx="4"/>
<circle cx="734.8" cy="176.8" r="1.9" fill="rgb(122,122,122)" opacity="0.75"/>
<circle cx="754.6" cy="73.8" r="1.9" fill="rgb(86,86,86)" opacity="0.75"/>
<circle cx="734.1" cy="106.8" r="2.5" fill="rgb(161,161,161)" opacity="0.75"/>
<circle cx="817.4" cy="196.9" r="2.4" fill="rgb(154,154,154)" opacity="0.75"/>
<circle cx="757.8" cy="171.7" r="2.1" fill="rgb(116,116,116)" opacity="0.75"/>
<circle cx="757.8" cy="82.9" r="1.3" fill="rgb(78,78,78)" opacity="0.75"/>
<circle cx="806.0" cy="83.1" r="1.2" fill="rgb(176,176,176)" opacity="0.75"/>
<circle cx="734.7" cy="105.9" r="1.4" fill="rgb(143,143,143)" opacity="0.75"/>
<circle cx="760.3" cy="125.5" r="1.4" fill="rgb(161,161,161)" opacity="0.75"/>
<circle cx="793.0" cy="97.0" r="1.2" fill="rgb(138,138,138)" opacity="0.75"/>
<circle cx="819.8" cy="107.0" r="1.4" fill="rgb(187,187,187)" opacity="0.75"/>
<circle cx="804.0" cy="167.9" r="1.5" fill="rgb(112,112,112)" opacity="0.75"/>
<circle cx="814.7" cy="157.0" r="1.5" fill="rgb(75,75,75)" opacity="0.75"/>
<circle cx="811.9" cy="113.0" r="1.2" fill="rgb(180,180,180)" opacity="0.75"/>
<circle cx="785.6" cy="157.7" r="1.9" fill="rgb(111,111,111)" opacity="0.75"/>
<circle cx="733.7" cy="190.4" r="2.1" fill="rgb(72,72,72)" opacity="0.75"/>
<circle cx="742.8" cy="173.3" r="2.4" fill="rgb(130,130,130)" opacity="0.75"/>
<circle cx="795.7" cy="84.5" r="1.8" fill="rgb(173,173,173)" opacity="0.75"/>
<circle cx="725.0" cy="179.0" r="2.2" fill="rgb(90,90,90)" opacity="0.75"/>
<circle cx="728.5" cy="90.5" r="1.9" fill="rgb(120,120,120)" opacity="0.75"/>
<circle cx="741.4" cy="102.5" r="2.0" fill="rgb(89,89,89)" opacity="0.75"/>
<circle cx="732.8" cy="106.1" r="2.1" fill="rgb(106,106,106)" opacity="0.75"/>
<circle cx="739.0" cy="150.2" r="1.8" fill="rgb(83,83,83)" opacity="0.75"/>
<circle cx="712.9" cy="186.2" r="1.9" fill="rgb(78,78,78)" opacity="0.75"/>
<circle cx="708.9" cy="145.0" r="2.0" fill="rgb(132,132,132)" opacity="0.75"/>
<circle cx="758.0" cy="140.9" r="1.6" fill="rgb(102,102,102)" opacity="0.75"/>
<circle cx="801.2" cy="99.0" r="2.2" fill="rgb(131,131,131)" opacity="0.75"/>
<circle cx="706.7" cy="169.7" r="2.6" fill="rgb(98,98,98)" opacity="0.75"/>
<circle cx="707.4" cy="127.0" r="1.2" fill="rgb(158,158,158)" opacity="0.75"/>
<circle cx="818.9" cy="74.8" r="2.0" fill="rgb(76,76,76)" opacity="0.75"/>
<circle cx="786.8" cy="113.8" r="2.3" fill="rgb(183,183,183)" opacity="0.75"/>
<circle cx="770.2" cy="132.7" r="2.0" fill="rgb(104,104,104)" opacity="0.75"/>
<circle cx="803.3" cy="81.6" r="1.5" fill="rgb(171,171,171)" opacity="0.75"/>
<circle cx="760.3" cy="167.5" r="1.6" fill="rgb(120,120,120)" opacity="0.75"/>
<circle cx="773.7" cy="177.8" r="1.6" fill="rgb(187,187,187)" opacity="0.75"/>
<circle cx="729.3" cy="193.2" r="2.0" fill="rgb(73,73,73)" opacity="0.75"/>
<circle cx="816.5" cy="90.4" r="2.1" fill="rgb(98,98,98)" opacity="0.75"/>
<circle cx="782.1" cy="171.8" r="1.8" fill="rgb(188,188,188)" opacity="0.75"/>
<circle cx="737.2" cy="170.8" r="1.4" fill="rgb(78,78,78)" opacity="0.75"/>
<circle cx="726.2" cy="150.2" r="2.1" fill="rgb(120,120,120)" opacity="0.75"/>
<circle cx="710.0" cy="122.3" r="2.3" fill="rgb(140,140,140)" opacity="0.75"/>
<circle cx="799.0" cy="168.5" r="1.3" fill="rgb(187,187,187)" opacity="0.75"/>
<circle cx="809.7" cy="89.3" r="1.5" fill="rgb(125,125,125)" opacity="0.75"/>
<circle cx="767.6" cy="152.7" r="1.3" fill="rgb(176,176,176)" opacity="0.75"/>
<circle cx="756.4" cy="114.4" r="2.2" fill="rgb(115,115,115)" opacity="0.75"/>
<circle cx="827.4" cy="83.7" r="1.4" fill="rgb(94,94,94)" opacity="0.75"/>
<circle cx="762.2" cy="163.8" r="1.2" fill="rgb(70,70,70)" opacity="0.75"/>
<circle cx="756.3" cy="135.3" r="1.8" fill="rgb(83,83,83)" opacity="0.75"/>
<circle cx="741.7" cy="122.2" r="2.6" fill="rgb(79,79,79)" opacity="0.75"/>
<circle cx="791.4" cy="160.2" r="1.6" fill="rgb(118,118,118)" opacity="0.75"/>
<circle cx="718.4" cy="178.2" r="1.8" fill="rgb(167,167,167)" opacity="0.75"/>
<circle cx="824.2" cy="114.3" r="2.5" fill="rgb(146,146,146)" opacity="0.75"/>
<circle cx="823.0" cy="95.4" r="1.8" fill="rgb(101,101,101)" opacity="0.75"/>
<circle cx="787.5" cy="74.6" r="2.0" fill="rgb(147,147,147)" opacity="0.75"/>
<circle cx="821.6" cy="182.0" r="1.8" fill="rgb(105,105,105)" opacity="0.75"/>
<circle cx="754.1" cy="176.6" r="1.7" fill="rgb(157,157,157)" opacity="0.75"/>
<circle cx="709.4" cy="121.4" r="1.5" fill="rgb(123,123,123)" opacity="0.75"/>
<circle cx="774.4" cy="88.3" r="1.8" fill="rgb(112,112,112)" opacity="0.75"/>
<circle cx="780.2" cy="165.7" r="1.8" fill="rgb(180,180,180)" opacity="0.75"/>
<circle cx="832.1" cy="155.3" r="1.5" fill="rgb(184,184,184)" opacity="0.75"/>
<circle cx="752.8" cy="76.5" r="1.7" fill="rgb(130,130,130)" opacity="0.75"/>
<circle cx="738.7" cy="69.4" r="2.2" fill="rgb(106,106,106)" opacity="0.75"/>
<circle cx="769.6" cy="140.8" r="1.6" fill="rgb(115,115,115)" opacity="0.75"/>
<circle cx="749.9" cy="87.0" r="1.4" fill="rgb(152,152,152)" opacity="0.75"/>
<circle cx="734.3" cy="176.1" r="1.2" fill="rgb(90,90,90)" opacity="0.75"/>
<circle cx="744.9" cy="117.0" r="2.4" fill="rgb(81,81,81)" opacity="0.75"/>
<circle cx="752.6" cy="100.3" r="1.6" fill="rgb(74,74,74)" opacity="0.75"/>
<circle cx="782.0" cy="130.5" r="1.4" fill="rgb(108,108,108)" opacity="0.75"/>
<circle cx="780.4" cy="71.1" r="1.8" fill="rgb(139,139,139)" opacity="0.75"/>
<circle cx="765.2" cy="157.2" r="1.6" fill="rgb(126,126,126)" opacity="0.75"/>
<circle cx="761.7" cy="116.0" r="2.4" fill="rgb(112,112,112)" opacity="0.75"/>
<circle cx="772.5" cy="125.4" r="1.7" fill="rgb(94,94,94)" opacity="0.75"/>
<circle cx="815.6" cy="96.4" r="1.7" fill="rgb(134,134,134)" opacity="0.75"/>
<circle cx="782.5" cy="85.2" r="2.2" fill="rgb(66,66,66)" opacity="0.75"/>
<circle cx="765.8" cy="68.5" r="2.1" fill="rgb(136,136,136)" opacity="0.75"/>
<circle cx="711.7" cy="177.9" r="2.1" fill="rgb(150,150,150)" opacity="0.75"/>
<circle cx="827.2" cy="179.9" r="2.3" fill="rgb(120,120,120)" opacity="0.75"/>
<circle cx="736.7" cy="170.9" r="1.7" fill="rgb(90,90,90)" opacity="0.75"/>
<circle cx="710.8" cy="116.8" r="1.6" fill="rgb(144,144,144)" opacity="0.75"/>
<circle cx="794.4" cy="95.8" r="1.5" fill="rgb(163,163,163)" opacity="0.75"/>
<circle cx="802.9" cy="112.6" r="1.9" fill="rgb(121,121,121)" opacity="0.75"/>
<circle cx="799.6" cy="185.0" r="1.9" fill="rgb(98,98,98)" opacity="0.75"/>
<circle cx="736.4" cy="177.9" r="2.2" fill="rgb(138,138,138)" opacity="0.75"/>
<circle cx="706.0" cy="117.9" r="2.5" fill="rgb(153,153,153)" opacity="0.75"/>
<circle cx="821.6" cy="102.4" r="1.9" fill="rgb(156,156,156)" opacity="0.75"/>
<circle cx="779.2" cy="128.0" r="2.4" fill="rgb(143,143,143)" opacity="0.75"/>
<circle cx="712.4" cy="71.6" r="2.4" fill="rgb(142,142,142)" opacity="0.75"/>
<circle cx="776.5" cy="101.0" r="2.1" fill="rgb(107,107,107)" opacity="0.75"/>
<circle cx="753.0" cy="111.4" r="1.2" fill="rgb(152,152,152)" opacity="0.75"/>
<circle cx="794.9" cy="95.2" r="2.1" fill="rgb(79,79,79)" opacity="0.75"/>
<circle cx="783.7" cy="120.4" r="1.3" fill="rgb(166,166,166)" opacity="0.75"/>
<circle cx="711.9" cy="127.3" r="1.7" fill="rgb(175,175,175)" opacity="0.75"/>
<circle cx="821.2" cy="72.0" r="2.2" fill="rgb(94,94,94)" opacity="0.75"/>
<circle cx="738.5" cy="131.4" r="2.6" fill="rgb(181,181,181)" opacity="0.75"/>
<circle cx="722.5" cy="92.0" r="1.6" fill="rgb(118,118,118)" opacity="0.75"/>
<circle cx="731.6" cy="134.7" r="1.2" fill="rgb(160,160,160)" opacity="0.75"/>
<circle cx="774.1" cy="177.4" r="2.1" fill="rgb(80,80,80)" opacity="0.75"/>
<circle cx="775.9" cy="175.0" r="1.6" fill="rgb(145,145,145)" opacity="0.75"/>
<circle cx="716.5" cy="69.5" r="2.2" fill="rgb(113,113,113)" opacity="0.75"/>
<circle cx="792.3" cy="192.3" r="1.4" fill="rgb(101,101,101)" opacity="0.75"/>
<circle cx="783.8" cy="130.8" r="1.7" fill="rgb(135,135,135)" opacity="0.75"/>
<circle cx="740.1" cy="164.4" r="1.5" fill="rgb(187,187,187)" opacity="0.75"/>
<circle cx="735.4" cy="109.2" r="2.5" fill="rgb(105,105,105)" opacity="0.75"/>
<circle cx="798.9" cy="181.1" r="2.3" fill="rgb(77,77,77)" opacity="0.75"/>
<circle cx="818.1" cy="107.3" r="1.9" fill="rgb(175,175,175)" opacity="0.75"/>
<circle cx="791.3" cy="72.2" r="2.4" fill="rgb(165,165,165)" opacity="0.75"/>
<circle cx="709.9" cy="100.0" r="2.2" fill="rgb(189,189,189)" opacity="0.75"/>
<circle cx="793.2" cy="99.9" r="1.7" fill="rgb(124,124,124)" opacity="0.75"/>
<circle cx="791.8" cy="90.9" r="2.4" fill="rgb(112,112,112)" opacity="0.75"/>
<circle cx="810.7" cy="140.8" r="2.1" fill="rgb(167,167,167)" opacity="0.75"/>
<circle cx="719.3" cy="163.2" r="2.3" fill="rgb(128,128,128)" opacity="0.75"/>
<circle cx="719.3" cy="116.0" r="1.5" fill="rgb(134,134,134)" opacity="0.75"/>
<circle cx="727.0" cy="68.8" r="1.6" fill="rgb(94,94,94)" opacity="0.75"/>
<circle cx="738.2" cy="99.8" r="1.7" fill="rgb(161,161,161)" opacity="0.75"/>
<circle cx="791.3" cy="85.0" r="2.2" fill="rgb(100,100,100)" opacity="0.75"/>
<circle cx="718.4" cy="72.5" r="1.7" fill="rgb(133,133,133)" opacity="0.75"/>
<circle cx="773.0" cy="171.2" r="1.7" fill="rgb(163,163,163)" opacity="0.75"/>
<circle cx="706.4" cy="137.5" r="1.4" fill="rgb(183,183,183)" opacity="0.75"/>
<circle cx="711.8" cy="124.0" r="1.5" fill="rgb(132,132,132)" opacity="0.75"/>
<circle cx="796.8" cy="120.1" r="2.6" fill="rgb(96,96,96)" opacity="0.75"/>
<circle cx="753.6" cy="157.2" r="2.3" fill="rgb(132,132,132)" opacity="0.75"/>
<circle cx="722.1" cy="89.8" r="2.0" fill="rgb(87,87,87)" opacity="0.75"/>
<circle cx="819.6" cy="181.5" r="1.4" fill="rgb(170,170,170)" opacity="0.75"/>
<circle cx="745.1" cy="69.5" r="1.6" fill="rgb(96,96,96)" opacity="0.75"/>
<circle cx="755.0" cy="108.9" r="1.9" fill="rgb(80,80,80)" opacity="0.75"/>
<circle cx="750.6" cy="100.7" r="1.4" fill="rgb(73,73,73)" opacity="0.75"/>
<circle cx="703.9" cy="165.9" r="1.2" fill="rgb(80,80,80)" opacity="0.75"/>
<circle cx="746.7" cy="85.2" r="2.6" fill="rgb(111,111,111)" opacity="0.75"/>
<circle cx="756.1" cy="71.2" r="2.3" fill="rgb(149,149,149)" opacity="0.75"/>
<circle cx="754.5" cy="74.5" r="1.6" fill="rgb(124,124,124)" opacity="0.75"/>
<circle cx="825.1" cy="179.4" r="2.0" fill="rgb(173,173,173)" opacity="0.75"/>
<circle cx="825.3" cy="73.1" r="2.5" fill="rgb(66,66,66)" opacity="0.75"/>
<circle cx="773.1" cy="154.7" r="1.7" fill="rgb(129,129,129)" opacity="0.75"/>
<circle cx="801.0" cy="107.3" r="1.2" fill="rgb(179,179,179)" opacity="0.75"/>
<circle cx="730.3" cy="191.7" r="2.3" fill="rgb(62,62,62)" opacity="0.75"/>
<circle cx="737.4" cy="98.9" r="1.8" fill="rgb(186,186,186)" opacity="0.75"/>
<circle cx="807.4" cy="174.6" r="2.5" fill="rgb(85,85,85)" opacity="0.75"/>
<circle cx="765.7" cy="176.2" r="1.6" fill="rgb(164,164,164)" opacity="0.75"/>
<circle cx="821.3" cy="70.1" r="1.5" fill="rgb(96,96,96)" opacity="0.75"/>
<circle cx="753.5" cy="115.0" r="2.3" fill="rgb(130,130,130)" opacity="0.75"/>
<circle cx="750.4" cy="149.9" r="1.6" fill="rgb(150,150,150)" opacity="0.75"/>
<circle cx="711.7" cy="151.9" r="1.6" fill="rgb(84,84,84)" opacity="0.75"/>
<circle cx="730.8" cy="90.4" r="2.2" fill="rgb(72,72,72)" opacity="0.75"/>
<circle cx="774.0" cy="155.4" r="1.7" fill="rgb(105,105,105)" opacity="0.75"/>
<circle cx="723.2" cy="115.5" r="1.8" fill="rgb(106,106,106)" opacity="0.75"/>
<circle cx="704.2" cy="132.3" r="1.3" fill="rgb(163,163,163)" opacity="0.75"/>
<circle cx="826.6" cy="176.2" r="1.2" fill="rgb(112,112,112)" opacity="0.75"/>
<circle cx="725.7" cy="75.6" r="2.0" fill="rgb(87,87,87)" opacity="0.75"/>
<circle cx="744.8" cy="128.5" r="1.9" fill="rgb(116,116,116)" opacity="0.75"/>
<circle cx="804.5" cy="182.4" r="1.3" fill="rgb(129,129,129)" opacity="0.75"/>
<circle cx="753.7" cy="186.7" r="2.3" fill="rgb(106,106,106)" opacity="0.75"/>
<circle cx="771.3" cy="68.3" r="2.5" fill="rgb(156,156,156)" opacity="0.75"/>
<circle cx="710.2" cy="147.1" r="2.4" fill="rgb(148,148,148)" opacity="0.75"/>
<circle cx="814.3" cy="148.7" r="2.6" fill="rgb(189,189,189)" opacity="0.75"/>
<circle cx="823.2" cy="82.8" r="1.8" fill="rgb(176,176,176)" opacity="0.75"/>
<circle cx="763.7" cy="175.8" r="1.5" fill="rgb(188,188,188)" opacity="0.75"/>
<circle cx="781.1" cy="141.5" r="1.9" fill="rgb(68,68,68)" opacity="0.75"/>
<circle cx="761.7" cy="103.9" r="2.0" fill="rgb(71,71,71)" opacity="0.75"/>
<circle cx="824.1" cy="86.8" r="1.7" fill="rgb(179,179,179)" opacity="0.75"/>
<circle cx="736.3" cy="148.0" r="2.2" fill="rgb(108,108,108)" opacity="0.75"/>
<circle cx="831.6" cy="119.3" r="2.3" fill="rgb(92,92,92)" opacity="0.75"/>
<circle cx="819.7" cy="81.4" r="2.4" fill="rgb(107,107,107)" opacity="0.75"/>
<circle cx="787.4" cy="188.9" r="2.3" fill="rgb(89,89,89)" opacity="0.75"/>
<circle cx="769.5" cy="196.2" r="1.5" fill="rgb(76,76,76)" opacity="0.75"/>
<circle cx="708.0" cy="111.5" r="1.8" fill="rgb(149,149,149)" opacity="0.75"/>
<circle cx="772.7" cy="179.5" r="1.9" fill="rgb(110,110,110)" opacity="0.75"/>
<circle cx="828.0" cy="98.0" r="2.0" fill="rgb(87,87,87)" opacity="0.75"/>
<circle cx="805.3" cy="130.8" r="1.3" fill="rgb(121,121,121)" opacity="0.75"/>
<circle cx="767.6" cy="74.3" r="2.3" fill="rgb(76,76,76)" opacity="0.75"/>
<circle cx="722.7" cy="114.6" r="1.7" fill="rgb(85,85,85)" opacity="0.75"/>
<circle cx="823.8" cy="191.2" r="2.4" fill="rgb(116,116,116)" opacity="0.75"/>
<circle cx="718.3" cy="90.6" r="1.2" fill="rgb(159,159,159)" opacity="0.75"/>
<circle cx="791.6" cy="127.5" r="1.3" fill="rgb(185,185,185)" opacity="0.75"/>
<circle cx="831.4" cy="93.9" r="2.4" fill="rgb(140,140,140)" opacity="0.75"/>
<circle cx="797.6" cy="92.6" r="1.7" fill="rgb(170,170,170)" opacity="0.75"/>
<circle cx="809.2" cy="158.0" r="2.1" fill="rgb(131,131,131)" opacity="0.75"/>
<circle cx="730.1" cy="94.2" r="1.4" fill="rgb(92,92,92)" opacity="0.75"/>
<circle cx="778.5" cy="72.4" r="1.4" fill="rgb(131,131,131)" opacity="0.75"/>
<circle cx="825.3" cy="146.3" r="1.6" fill="rgb(151,151,151)" opacity="0.75"/>
<circle cx="704.0" cy="76.0" r="2.2" fill="rgb(112,112,112)" opacity="0.75"/>
<circle cx="749.8" cy="107.3" r="1.5" fill="rgb(164,164,164)" opacity="0.75"/>
<circle cx="712.3" cy="101.6" r="2.3" fill="rgb(155,155,155)" opacity="0.75"/>
<circle cx="756.2" cy="126.4" r="1.4" fill="rgb(189,189,189)" opacity="0.75"/>
<circle cx="715.4" cy="133.8" r="1.5" fill="rgb(166,166,166)" opacity="0.75"/>
<circle cx="778.3" cy="104.0" r="2.5" fill="rgb(133,133,133)" opacity="0.75"/>
<circle cx="713.2" cy="151.3" r="2.5" fill="rgb(117,117,117)" opacity="0.75"/>
<circle cx="753.4" cy="163.6" r="1.8" fill="rgb(116,116,116)" opacity="0.75"/>
<circle cx="711.3" cy="121.5" r="2.0" fill="rgb(132,132,132)" opacity="0.75"/>
<circle cx="788.6" cy="101.8" r="2.1" fill="rgb(63,63,63)" opacity="0.75"/>
<circle cx="734.8" cy="120.5" r="2.0" fill="rgb(93,93,93)" opacity="0.75"/>
<circle cx="815.6" cy="117.5" r="1.7" fill="rgb(131,131,131)" opacity="0.75"/>
<circle cx="809.7" cy="177.5" r="2.0" fill="rgb(86,86,86)" opacity="0.75"/>
<circle cx="715.9" cy="183.5" r="2.3" fill="rgb(82,82,82)" opacity="0.75"/>
<circle cx="705.1" cy="70.9" r="2.6" fill="rgb(148,148,148)" opacity="0.75"/>
<circle cx="809.0" cy="180.5" r="1.9" fill="rgb(99,99,99)" opacity="0.75"/>
<circle cx="750.0" cy="127.4" r="1.9" fill="rgb(140,140,140)" opacity="0.75"/>
<circle cx="787.7" cy="74.9" r="2.6" fill="rgb(116,116,116)" opacity="0.75"/>
<circle cx="832.0" cy="118.4" r="2.1" fill="rgb(118,118,118)" opacity="0.75"/>
<circle cx="794.1" cy="196.7" r="2.6" fill="rgb(77,77,77)" opacity="0.75"/>
<circle cx="788.3" cy="169.7" r="1.9" fill="rgb(115,115,115)" opacity="0.75"/>
<circle cx="779.0" cy="131.7" r="1.9" fill="rgb(96,96,96)" opacity="0.75"/>
<circle cx="715.5" cy="170.3" r="1.4" fill="rgb(60,60,60)" opacity="0.75"/>
<circle cx="787.4" cy="148.0" r="2.1" fill="rgb(124,124,124)" opacity="0.75"/>
<circle cx="829.1" cy="128.6" r="1.8" fill="rgb(90,90,90)" opacity="0.75"/>
<circle cx="723.3" cy="115.2" r="2.5" fill="rgb(153,153,153)" opacity="0.75"/>
<circle cx="819.5" cy="70.1" r="1.8" fill="rgb(149,149,149)" opacity="0.75"/>
<circle cx="775.9" cy="193.7" r="1.6" fill="rgb(84,84,84)" opacity="0.75"/>
<circle cx="769.0" cy="83.2" r="1.4" fill="rgb(120,120,120)" opacity="0.75"/>
<circle cx="714.5" cy="133.6" r="1.7" fill="rgb(135,135,135)" opacity="0.75"/>
<circle cx="735.0" cy="143.8" r="1.3" fill="rgb(179,179,179)" opacity="0.75"/>
<text x="768" y="226" font-size="19" fill="#222" text-anchor="middle" font-style="italic">x<tspan dy="5" font-size="14">T</tspan></text>
<line x1="832" y1="248" x2="60" y2="248" stroke="#B31B1B" stroke-width="2.5" marker-end="url(#ab)"/>
<text x="450" y="277" font-size="18" fill="#B31B1B" text-anchor="middle">reverse &#8212; a network removes a little noise (the only learned part)</text>
</svg>
